<svg width="32" height="32" viewBox="0 0 32 32" fill="none" xmlns="http://www.w3.org/2000/svg">
<g clip-path="url(#clip0)">
<path opacity="0.988533" d="M35.2735 -3.1814H-3.27357V35.1814H35.2735V-3.1814Z" fill="#090B9A"/>
<path opacity="0.997" d="M8.24847 5.41296V26.5869H12.8296V18.4907V15.0382V14.2415V8.92718H14.4777C15.6137 8.92718 16.4517 9.16151 16.9917 9.62999C17.5504 10.0985 17.8297 10.8417 17.8297 11.8602C17.8297 12.9601 17.5689 13.7644 17.0475 14.2736C16.5447 14.7829 15.7816 15.0382 14.7573 15.0382H13.2334L19.0935 26.5869H23.7515L18.8358 17.5741C20.1208 16.9427 21.0606 16.1785 21.6565 15.2823C22.2524 14.3657 22.5503 13.2249 22.5503 11.8602C22.5503 9.68068 21.8805 8.06117 20.5397 7.00196C19.2175 5.94278 17.2336 5.41296 14.5892 5.41296H8.24847Z" fill="white" fill-opacity="0.996078"/>
</g>
<defs>
<clipPath id="clip0">
<rect width="32" height="32" fill="white"/>
</clipPath>
</defs>
</svg>
