<svg width="102" height="34" viewBox="0 0 102 34" fill="none" xmlns="http://www.w3.org/2000/svg">
<g filter="url(#filter0_f)">
<g opacity="0.997">
<path opacity="0.997" d="M4.17676 6.90668V27.0202H8.52847V19.3295V16.0498V15.2931V10.2449H10.0941C11.1731 10.2449 11.9691 10.4675 12.4822 10.9125C13.0128 11.3576 13.2782 12.0636 13.2782 13.031C13.2782 14.0759 13.0304 14.8399 12.5351 15.3236C12.0575 15.8073 11.3326 16.0498 10.3597 16.0498H8.91204L14.4787 27.0202H18.9034L14.2339 18.4588C15.4545 17.859 16.3472 17.1331 16.9133 16.2818C17.4794 15.4111 17.7623 14.3274 17.7623 13.031C17.7623 10.9607 17.1261 9.42226 15.8525 8.4161C14.5965 7.40996 12.7119 6.90668 10.2 6.90668H4.17676Z" fill="white"/>
<path opacity="0.997" d="M32.3453 19.7087C32.3453 20.2639 32.3187 20.7433 32.2657 21.1471H23.5357C23.6773 22.2742 24.0134 23.0649 24.5441 23.5191C25.0748 23.9733 25.8089 24.2004 26.7464 24.2004C27.3125 24.2004 27.8609 24.1079 28.3916 23.9228C28.9223 23.721 29.4972 23.4182 30.1163 23.0144L31.8411 25.235C30.196 26.4799 28.3651 27.1023 26.3484 27.1023C24.0664 27.1023 22.3152 26.4631 21.0946 25.1845C19.874 23.906 19.2637 22.1901 19.2637 20.0368C19.2637 18.6742 19.5202 17.4545 20.0332 16.3778C20.5462 15.2844 21.298 14.4264 22.2886 13.804C23.2792 13.1647 24.4645 12.8451 25.8443 12.8451C27.8786 12.8451 29.4707 13.4507 30.6205 14.662C31.7703 15.8732 32.3453 17.5554 32.3453 19.7087V19.7087ZM28.2324 18.5732C28.197 16.5209 27.4363 15.4947 25.9504 15.4947C25.2251 15.4947 24.659 15.747 24.2522 16.2517C23.863 16.7564 23.6242 17.5891 23.5357 18.7499H28.2324V18.5732Z" fill="white"/>
<path opacity="0.997" d="M40.8292 12.9305C41.8021 12.9305 42.6778 13.0635 43.4561 13.3297C44.2345 13.5959 44.9686 14.0035 45.6585 14.5525L43.8541 16.8983C42.9697 16.2661 42.0763 15.95 41.1741 15.95C40.2366 15.95 39.529 16.2744 39.0514 16.9232C38.5737 17.5721 38.3349 18.6202 38.3349 20.0676C38.3349 21.465 38.5737 22.4549 39.0514 23.0372C39.529 23.6195 40.2189 23.9106 41.1211 23.9106C41.5987 23.9106 42.0321 23.8441 42.4213 23.711C42.8104 23.5613 43.2792 23.3284 43.8276 23.0123L45.6585 25.4578C44.261 26.5059 42.6778 27.03 40.9088 27.03C39.4759 27.03 38.2376 26.7472 37.1939 26.1815C36.1502 25.5992 35.3454 24.7924 34.7793 23.7609C34.2132 22.7128 33.9302 21.49 33.9302 20.0925C33.9302 18.6951 34.2132 17.4556 34.7793 16.3742C35.3454 15.2929 36.1502 14.4527 37.1939 13.8538C38.2376 13.2382 39.4494 12.9305 40.8292 12.9305Z" fill="white"/>
<path opacity="0.997" d="M55.6756 12.4794C56.8962 12.4794 57.8515 12.8508 58.5414 13.5938C59.2313 14.3368 59.5762 15.3805 59.5762 16.7249V27.0204H55.3837V17.4414C55.3837 16.7338 55.2687 16.2473 55.0388 15.9819C54.8088 15.6989 54.4816 15.5574 54.057 15.5574C53.2079 15.5574 52.3942 16.1588 51.6158 17.3617V27.0204H47.4233V6.90708H51.6158V14.4429C52.1996 13.7884 52.8187 13.3019 53.4732 12.9835C54.1278 12.6474 54.8619 12.4794 55.6756 12.4794V12.4794Z" fill="white"/>
<path opacity="0.997" d="M66.9045 12.9305V27.0204H62.712V12.9305H66.9045ZM64.7817 6.89772C65.507 6.89772 66.0996 7.12767 66.5595 7.58761C67.0371 8.02986 67.276 8.59595 67.276 9.28584C67.276 9.97574 67.0371 10.5507 66.5595 11.0106C66.0996 11.4528 65.507 11.6739 64.7817 11.6739C64.0564 11.6739 63.4638 11.4528 63.0039 11.0106C62.5439 10.5507 62.314 9.97574 62.314 9.28584C62.314 8.59595 62.5439 8.02986 63.0039 7.58761C63.4638 7.12767 64.0564 6.89772 64.7817 6.89772Z" fill="white"/>
<path opacity="0.997" d="M76.2779 12.9305C78.4361 12.9305 80.1255 13.5535 81.3461 14.7995C82.5667 16.0289 83.177 17.7568 83.177 19.983C83.177 21.3952 82.8939 22.6329 82.3278 23.6962C81.7795 24.7428 80.9834 25.5569 79.9397 26.1384C78.9137 26.7199 77.6931 27.0106 76.2779 27.0106C74.1375 27.0106 72.4481 26.3959 71.2098 25.1665C69.9892 23.9205 69.3789 22.1843 69.3789 19.9581C69.3789 18.5459 69.6531 17.3165 70.2015 16.2698C70.7676 15.2065 71.5636 14.3842 72.5896 13.8027C73.6333 13.2212 74.8628 12.9305 76.2779 12.9305V12.9305ZM76.2779 15.8213C75.4288 15.8213 74.792 16.1618 74.3674 16.843C73.9429 17.5075 73.7306 18.5459 73.7306 19.9581C73.7306 21.4035 73.934 22.4585 74.3409 23.123C74.7655 23.7876 75.4111 24.1198 76.2779 24.1198C77.127 24.1198 77.7639 23.7876 78.1884 23.123C78.613 22.4418 78.8253 21.3952 78.8253 19.983C78.8253 18.5376 78.613 17.4826 78.1884 16.8181C77.7816 16.1535 77.1447 15.8213 76.2779 15.8213Z" fill="white"/>
<path opacity="0.997" d="M93.9232 12.8524C95.1438 12.8524 96.099 13.2239 96.7889 13.9669C97.4788 14.7098 97.8238 15.3805 97.8238 16.7249V27.0204H93.6313V17.4414C93.6313 16.7338 93.5164 16.2473 93.2863 15.982C93.0741 15.6989 92.7468 15.5574 92.3046 15.5574C91.4555 15.5574 90.6417 16.1677 89.8634 17.3883V27.0204H85.6709V12.9305H89.6246V14.9752C90.226 14.2676 90.8717 13.7369 91.5616 13.3831C92.2692 13.0293 93.0564 12.8524 93.9232 12.8524V12.8524Z" fill="white"/>
</g>
</g>
<defs>
<filter id="filter0_f" x="4.17575" y="6.89672" width="93.649" height="20.2066" filterUnits="userSpaceOnUse" color-interpolation-filters="sRGB">
<feFlood flood-opacity="0" result="BackgroundImageFix"/>
<feBlend mode="normal" in="SourceGraphic" in2="BackgroundImageFix" result="shape"/>
<feGaussianBlur stdDeviation="0.000501406" result="effect1_foregroundBlur"/>
</filter>
</defs>
</svg>
