<svg width="150" height="50" viewBox="0 0 150 50" fill="none" xmlns="http://www.w3.org/2000/svg">
<g opacity="0.997">
<path opacity="0.997" d="M6.14203 10.1569V39.7356H12.5416V28.4257V23.6028V22.4899V15.0661H14.8439C16.4308 15.0661 17.6014 15.3934 18.3559 16.0479C19.1363 16.7023 19.5265 17.7406 19.5265 19.1633C19.5265 20.6998 19.1621 21.8234 18.4337 22.5348C17.7314 23.2461 16.6653 23.6028 15.2345 23.6028H13.1057L21.2919 39.7356H27.7989L20.932 27.1454C22.727 26.2633 24.0398 25.1958 24.8723 23.9438C25.7047 22.6634 26.1208 21.0698 26.1208 19.1633C26.1208 16.1187 25.1852 13.8563 23.3122 12.3767C21.4652 10.897 18.6937 10.1569 14.9997 10.1569H6.14203Z" fill="#090B9A"/>
<path opacity="0.997" d="M47.5661 28.9835C47.5661 29.7999 47.5271 30.5049 47.4491 31.0987H34.611C34.8191 32.7562 35.3134 33.919 36.0938 34.5869C36.8742 35.2549 37.9538 35.5888 39.3326 35.5888C40.165 35.5888 40.9715 35.4528 41.7519 35.1806C42.5324 34.8838 43.3778 34.4385 44.2883 33.8448L46.8247 37.1103C44.4054 38.941 41.7129 39.8564 38.7473 39.8564C35.3914 39.8564 32.816 38.9163 31.021 37.0361C29.226 35.1559 28.3285 32.6325 28.3285 29.4659C28.3285 27.462 28.7057 25.6684 29.4601 24.0851C30.2145 22.477 31.3202 21.2154 32.777 20.3C34.2338 19.3599 35.9767 18.8899 38.0059 18.8899C40.9975 18.8899 43.3388 19.7805 45.0297 21.5617C46.7207 23.3429 47.5661 25.8168 47.5661 28.9835V28.9835ZM41.5178 27.3136C41.4658 24.2954 40.3471 22.7863 38.1619 22.7863C37.0954 22.7863 36.2629 23.1574 35.6646 23.8996C35.0922 24.6418 34.741 25.8664 34.611 27.5733H41.5178V27.3136Z" fill="#090B9A"/>
<path opacity="0.997" d="M60.0427 19.0154C61.4735 19.0154 62.7612 19.2111 63.9058 19.6026C65.0504 19.994 66.13 20.5934 67.1446 21.4008L64.4911 24.8504C63.1904 23.9207 61.8767 23.4559 60.55 23.4559C59.1712 23.4559 58.1306 23.9329 57.4282 24.8871C56.7258 25.8413 56.3746 27.3826 56.3746 29.5111C56.3746 31.5662 56.7258 33.0219 57.4282 33.8782C58.1306 34.7345 59.1452 35.1627 60.4719 35.1627C61.1743 35.1627 61.8116 35.0648 62.384 34.8691C62.9563 34.6489 63.6457 34.3064 64.4521 33.8416L67.1446 37.438C65.0895 38.9793 62.7612 39.75 60.1597 39.75C58.0526 39.75 56.2316 39.3341 54.6967 38.5022C53.1619 37.646 51.9782 36.4594 51.1457 34.9425C50.3133 33.4012 49.8971 31.6029 49.8971 29.5478C49.8971 27.4927 50.3133 25.67 51.1457 24.0798C51.9782 22.4895 53.1619 21.254 54.6967 20.3732C56.2316 19.468 58.0135 19.0154 60.0427 19.0154Z" fill="#090B9A"/>
<path opacity="0.997" d="M81.8759 18.352C83.6709 18.352 85.0756 18.8983 86.0902 19.9909C87.1048 21.0835 87.612 22.6183 87.612 24.5954V39.7358H81.4466V25.649C81.4466 24.6085 81.2775 23.893 80.9394 23.5028C80.6012 23.0866 80.1199 22.8785 79.4956 22.8785C78.2469 22.8785 77.0502 23.763 75.9056 25.532V39.7358H69.7402V10.1575H75.9056V21.2396C76.764 20.2771 77.6745 19.5617 78.6371 19.0934C79.5996 18.5991 80.6792 18.352 81.8759 18.352V18.352Z" fill="#090B9A"/>
<path opacity="0.997" d="M98.3887 19.0154V39.7359H92.2233V19.0154H98.3887ZM95.267 10.1437C96.3336 10.1437 97.205 10.4819 97.8814 11.1583C98.5838 11.8086 98.935 12.6411 98.935 13.6557C98.935 14.6702 98.5838 15.5157 97.8814 16.1921C97.205 16.8424 96.3336 17.1676 95.267 17.1676C94.2004 17.1676 93.3289 16.8424 92.6525 16.1921C91.9761 15.5157 91.638 14.6702 91.638 13.6557C91.638 12.6411 91.9761 11.8086 92.6525 11.1583C93.3289 10.4819 94.2004 10.1437 95.267 10.1437Z" fill="#090B9A"/>
<path opacity="0.997" d="M112.173 19.0154C115.347 19.0154 117.831 19.9316 119.626 21.764C121.421 23.5719 122.319 26.1129 122.319 29.3868C122.319 31.4635 121.902 33.2837 121.07 34.8473C120.264 36.3865 119.093 37.5837 117.558 38.4388C116.049 39.2939 114.254 39.7215 112.173 39.7215C109.025 39.7215 106.541 38.8175 104.72 37.0096C102.925 35.1771 102.027 32.624 102.027 29.3501C102.027 27.2734 102.431 25.4654 103.237 23.9262C104.07 22.3626 105.24 21.1532 106.749 20.2981C108.284 19.443 110.092 19.0154 112.173 19.0154V19.0154ZM112.173 23.2666C110.924 23.2666 109.988 23.7674 109.364 24.7691C108.739 25.7464 108.427 27.2734 108.427 29.3501C108.427 31.4757 108.726 33.0271 109.324 34.0044C109.949 34.9817 110.898 35.4703 112.173 35.4703C113.422 35.4703 114.358 34.9817 114.983 34.0044C115.607 33.0027 115.919 31.4635 115.919 29.3868C115.919 27.2612 115.607 25.7098 114.983 24.7325C114.384 23.7552 113.448 23.2666 112.173 23.2666Z" fill="#090B9A"/>
<path opacity="0.997" d="M138.122 18.9006C139.917 18.9006 141.322 19.4469 142.336 20.5395C143.351 21.6321 143.858 22.6184 143.858 24.5955V39.7359H137.693V25.6491C137.693 24.6085 137.524 23.8931 137.185 23.5029C136.873 23.0867 136.392 22.8786 135.742 22.8786C134.493 22.8786 133.296 23.7761 132.152 25.5711V39.7359H125.986V19.0154H131.8V22.0224C132.685 20.9818 133.634 20.2013 134.649 19.6811C135.689 19.1608 136.847 18.9006 138.122 18.9006V18.9006Z" fill="#090B9A"/>
</g>
</svg>
